<svg width="32" height="32" viewBox="0 0 32 32" fill="none" xmlns="http://www.w3.org/2000/svg">
<g clip-path="url(#clip0_1_70)">
<path d="M26.9958 1.59001L27.2938 1.29201C27.5181 1.06784 27.7844 0.890046 28.0774 0.768778C28.3704 0.647511 28.6844 0.585143 29.0015 0.585236C29.3186 0.585329 29.6326 0.64788 29.9256 0.76932C30.2185 0.890759 30.4846 1.06871 30.7088 1.29301C30.933 1.5173 31.1108 1.78356 31.232 2.07657C31.3533 2.36958 31.4157 2.6836 31.4156 3.00071C31.4155 3.31782 31.3529 3.63181 31.2315 3.92475C31.1101 4.21769 30.9321 4.48384 30.7078 4.70801L30.4098 5.00401C30.9196 5.57573 31.1914 6.32079 31.1694 7.08646C31.1475 7.85213 30.8335 8.58041 30.2918 9.12201L9.70782 29.708C9.57914 29.836 9.41805 29.9266 9.24181 29.97L1.24182 31.97C1.0744 32.0117 0.899047 32.0094 0.732801 31.9632C0.566555 31.9171 0.415072 31.8287 0.293076 31.7067C0.171081 31.5847 0.0827234 31.4333 0.0365926 31.267C-0.00953824 31.1008 -0.011873 30.9254 0.0298152 30.758L2.02982 22.758C2.07357 22.5825 2.16412 22.4221 2.29182 22.294L21.5758 3.01001C21.3829 2.87426 21.1483 2.81106 20.9134 2.83155C20.6784 2.85205 20.4583 2.95492 20.2918 3.12201L13.7078 9.70801C13.6148 9.80098 13.5045 9.87473 13.383 9.92505C13.2615 9.97537 13.1313 10.0013 12.9998 10.0013C12.8683 10.0013 12.7381 9.97537 12.6166 9.92505C12.4952 9.87473 12.3848 9.80098 12.2918 9.70801C12.1988 9.61503 12.1251 9.50465 12.0748 9.38317C12.0245 9.26169 11.9986 9.13149 11.9986 9.00001C11.9986 8.86852 12.0245 8.73832 12.0748 8.61684C12.1251 8.49536 12.1988 8.38498 12.2918 8.29201L18.8798 1.70801C19.4218 1.16604 20.1506 0.852047 20.9167 0.830476C21.6829 0.808905 22.4282 1.08139 22.9998 1.59201C23.5493 1.10088 24.2604 0.829229 24.9974 0.82886C25.7344 0.828492 26.4458 1.09943 26.9958 1.59001Z" fill="white"/>
</g>
<defs>
<clipPath id="clip0_1_70">
<rect width="32" height="32" fill="white"/>
</clipPath>
</defs>
</svg>
